HIERARCHY
ROOT Hips
{
 OFFSET 0.000000 0.000000 0.000000
 CHANNELS 6 Xposition Yposition Zposition Yrotation Xrotation Zrotation
 JOINT Chest
 {
  OFFSET 0.000000 9.585900 0.002600
  CHANNELS 3 Yrotation Xrotation Zrotation
  JOINT Chest2
  {
   OFFSET 0.000000 9.601200 -0.005300
   CHANNELS 3 Yrotation Xrotation Zrotation
   JOINT Chest3
   {
    OFFSET 0.000000 9.561800 0.000000
    CHANNELS 3 Yrotation Xrotation Zrotation
    JOINT Chest4
    {
     OFFSET 0.000000 9.552100 0.000000
     CHANNELS 3 Yrotation Xrotation Zrotation
     JOINT Neck
     {
      OFFSET 0.000000 14.453000 0.000000
      CHANNELS 3 Yrotation Xrotation Zrotation
      JOINT Head
      {
       OFFSET 0.000000 8.936500 -0.011300
       CHANNELS 3 Yrotation Xrotation Zrotation
       End Site
       {
        OFFSET 0.000000 17.073600 -0.006000
       }
      }
     }
     JOINT RightCollar
     {
      OFFSET -2.921100 9.558500 0.000000
      CHANNELS 3 Yrotation Xrotation Zrotation
      JOINT RightShoulder
      {
       OFFSET -13.519700 0.000000 0.000000
       CHANNELS 3 Yrotation Xrotation Zrotation
       JOINT RightElbow
       {
        OFFSET 0.000000 -29.696600 0.000000
        CHANNELS 3 Yrotation Xrotation Zrotation
        JOINT RightWrist
        {
         OFFSET 0.000000 -24.004700 0.000000
         CHANNELS 3 Yrotation Xrotation Zrotation
         End Site
         {
          OFFSET 0.000000 -17.728500 0.000000
         }
        }
       }
      }
     }
     JOINT LeftCollar
     {
      OFFSET 2.921100 9.558500 0.000000
      CHANNELS 3 Yrotation Xrotation Zrotation
      JOINT LeftShoulder
      {
       OFFSET 13.519700 0.000000 0.000000
       CHANNELS 3 Yrotation Xrotation Zrotation
       JOINT LeftElbow
       {
        OFFSET 0.000000 -29.696600 0.000000
        CHANNELS 3 Yrotation Xrotation Zrotation
        JOINT LeftWrist
        {
         OFFSET 0.000000 -24.004700 0.000000
         CHANNELS 3 Yrotation Xrotation Zrotation
         End Site
         {
          OFFSET 0.000000 -17.728500 0.000000
         }
        }
       }
      }
     }
    }
   }
  }
 }
 JOINT RightHip
 {
  OFFSET -7.771700 -0.012900 -0.001300
  CHANNELS 3 Yrotation Xrotation Zrotation
  JOINT RightKnee
  {
   OFFSET 0.000000 -40.869800 0.001200
   CHANNELS 3 Yrotation Xrotation Zrotation
   JOINT RightAnkle
   {
    OFFSET 0.000000 -39.717900 0.002100
    CHANNELS 3 Yrotation Xrotation Zrotation
    JOINT RightToe
    {
     OFFSET 0.000000 -4.965400 11.033500
     CHANNELS 3 Yrotation Xrotation Zrotation
     End Site
     {
      OFFSET 0.000000 -1.423100 5.872300
     }
    }
   }
  }
 }
 JOINT LeftHip
 {
  OFFSET 7.771700 -0.012900 -0.001300
  CHANNELS 3 Yrotation Xrotation Zrotation
  JOINT LeftKnee
  {
   OFFSET 0.000000 -40.869800 0.001200
   CHANNELS 3 Yrotation Xrotation Zrotation
   JOINT LeftAnkle
   {
    OFFSET 0.000000 -39.717900 0.002100
    CHANNELS 3 Yrotation Xrotation Zrotation
    JOINT LeftToe
    {
     OFFSET 0.000000 -4.965400 11.033500
     CHANNELS 3 Yrotation Xrotation Zrotation
     End Site
     {
      OFFSET 0.000000 -1.423100 5.872300
     }
    }
   }
  }
 }
}
MOTION
Frames: 11
Frame Time: 0.008333
0.000000 85.388000 0.000000 0.000000 -5.767877 0.000000 0.000000 11.653817 0.000000 0.000000 -5.885947 0.000000 0.000000 -0.000000 0.000000 0.000000 -0.000000 0.000000 0.000000 12.528835 0.000000 0.000000 0.711642 0.000000 0.000000 -0.000000 0.000000 0.000000 0.000000 -90.000000 0.000000 -2.309062 0.000000 0.000000 2.309062 0.000000 0.000000 -0.000000 0.000000 0.000000 -0.000000 90.000000 0.000000 -2.309062 0.000000 0.000000 2.309062 0.000000 0.000000 8.520406 0.000000 0.000000 1.905762 0.000000 -0.000000 -4.658285 0.000000 0.000000 -0.000000 0.000000 0.000000 8.520406 0.000000 0.000000 1.905762 0.000000 -0.000000 -4.658285 0.000000 0.000000 -0.000000 0.000000
-7.486762 52.267765 29.439283 173.607043 -37.589613 -2.052656 3.814552 24.402940 2.137154 0.513393 3.907878 0.434189 0.806413 6.146461 0.699726 3.059621 20.290760 2.741136 1.536353 19.489217 0.125351 2.767672 0.408309 -0.243246 -6.280927 -0.360071 -3.909423 -3.247960 -20.610438 -1.116996 -137.067786 -38.091380 173.750388 -0.859327 -5.102245 7.713959 -5.522375 -1.413345 1.690386 14.212400 -24.313766 1.162336 105.813697 -35.573585 -153.916465 9.116004 0.934386 -31.181537 -4.540743 -43.493180 2.072110 -144.557079 86.111475 -139.102142 1.700477 -10.647502 -4.176882 0.398185 -0.768682 0.194001 -0.632635 -39.992849 3.974654 71.613075 83.026305 60.934417 -6.540299 -12.706487 9.896750 0.487587 1.505675 0.224617
-7.487755 52.265662 29.438859 173.603551 -37.623647 -2.054009 3.865047 24.552321 2.172909 0.507300 3.886071 0.431071 0.819097 6.196087 0.706259 3.091677 20.355925 2.756525 1.553513 19.543212 0.156029 2.789031 0.508220 -0.191458 -6.405356 -0.098509 -3.938223 -3.208215 -20.279509 -1.109816 -136.925159 -38.138142 173.765626 -0.915257 -5.285625 7.689607 -5.441542 -1.218174 1.747377 14.019181 -24.200287 1.195138 105.950778 -35.631773 -153.897150 8.936079 1.019951 -31.401007 -4.486839 -43.461115 2.058112 -144.586569 86.112345 -139.112709 1.683382 -10.662134 -4.164863 0.409857 -0.758305 0.195983 -0.639714 -39.963087 3.970500 71.688377 83.013946 61.010734 -6.524873 -12.705009 9.893799 0.475788 1.500458 0.217189
-7.489069 52.262396 29.438543 173.597043 -37.660908 -2.054546 3.913064 24.657002 2.198114 0.511353 3.901130 0.434108 0.834057 6.241942 0.712817 3.132112 20.414671 2.773620 1.558656 19.600997 0.190509 2.787247 0.614907 -0.128966 -6.529553 0.176953 -3.959509 -3.140243 -19.928968 -1.104609 -136.716888 -38.239960 173.713647 -1.002897 -5.473460 7.640472 -5.374970 -1.014056 1.807156 13.792869 -24.091340 1.236560 106.133837 -35.712195 -153.862113 8.783964 1.134795 -31.597310 -4.454896 -43.424551 2.070631 -144.706219 86.122171 -139.248740 1.668619 -10.684461 -4.126747 0.391369 -0.736789 0.186843 -0.647883 -39.930548 3.964308 71.800299 82.991590 61.131860 -6.531786 -12.708480 9.878785 0.481541 1.502249 0.216023
-7.488456 52.258493 29.437954 173.573510 -37.704613 -2.058436 3.969642 24.735399 2.230249 0.508646 3.903563 0.437531 0.875460 6.324673 0.719158 3.182166 20.468888 2.793148 1.548788 19.658019 0.227289 2.757404 0.719814 -0.057783 -6.653211 0.457843 -3.973778 -3.057723 -19.562451 -1.102164 -136.444786 -38.391255 173.601708 -1.123624 -5.669048 7.574876 -5.328726 -0.811693 1.868854 13.557141 -23.989255 1.280615 106.346900 -35.808750 -153.810491 8.656823 1.283903 -31.788915 -4.422938 -43.384793 2.096523 -144.630100 86.117305 -139.172810 1.656438 -10.695037 -4.112558 0.393899 -0.727103 0.188841 -0.648488 -39.892720 3.971290 71.938504 82.975003 61.284114 -6.523180 -12.723149 9.865856 0.477809 1.508607 0.210317
-7.487748 52.252453 29.438885 173.560288 -37.736249 -2.072106 4.001556 24.777062 2.258929 0.522384 3.930385 0.438201 0.923909 6.405195 0.728083 3.235675 20.520626 2.813085 1.528096 19.710991 0.263862 2.707978 0.817062 0.016218 -6.779408 0.733566 -3.982148 -2.960798 -19.179848 -1.105160 -136.118329 -38.583246 173.439759 -1.268309 -5.872963 7.495535 -5.297407 -0.617668 1.927929 13.329451 -23.892658 1.320791 106.521880 -35.906506 -153.751088 8.511997 1.446348 -31.961922 -4.402009 -43.358949 2.125466 -144.492667 86.104828 -139.027924 1.642813 -10.703627 -4.108719 0.408435 -0.720700 0.196432 -0.662018 -39.872386 3.987642 72.114559 82.959970 61.475670 -6.535696 -12.732364 9.850116 0.482786 1.513220 0.211575
-7.489670 52.245027 29.440240 173.552102 -37.759212 -2.074864 4.060660 24.847080 2.288052 0.576769 4.015425 0.446879 0.902685 6.388152 0.733380 3.287107 20.571447 2.831252 1.501469 19.760020 0.299155 2.648285 0.907061 0.089651 -6.901952 0.996481 -3.985673 -2.857814 -18.780471 -1.114716 -135.741484 -38.806089 173.233398 -1.416905 -6.079276 7.402324 -5.275752 -0.436152 1.981399 13.120260 -23.796181 1.355314 106.650248 -36.002713 -153.693111 8.347700 1.605206 -32.123632 -4.378574 -43.344712 2.145573 -144.370946 86.092118 -138.918132 1.634955 -10.716666 -4.081488 0.407522 -0.709443 0.193533 -0.671294 -39.869662 3.965799 72.350014 82.934549 61.732837 -6.499520 -12.724372 9.835036 0.457803 1.498557 0.195388
-7.490970 52.241292 29.436523 173.529490 -37.816918 -2.070182 4.177885 24.984399 2.344093 0.568335 4.025562 0.450332 0.906505 6.409931 0.738428 3.336793 20.621211 2.847677 1.469396 19.806302 0.334682 2.578655 0.991925 0.165036 -7.012976 1.242518 -3.985661 -2.766712 -18.359537 -1.127020 -135.324796 -39.054600 172.995155 -1.550682 -6.284320 7.296629 -5.264294 -0.269193 2.028142 12.922253 -23.694103 1.391878 106.792638 -36.102764 -153.637636 8.201171 1.760850 -32.322213 -4.331953 -43.295023 2.164375 -144.217821 86.073550 -138.775121 1.616860 -10.723378 -4.050798 0.410237 -0.709533 0.193443 -0.663942 -39.822152 3.957955 72.502485 82.926048 61.901673 -6.483114 -12.720923 9.820809 0.451237 1.485683 0.190938
-7.492546 52.235471 29.435846 173.515081 -37.846000 -2.072272 4.258355 25.068762 2.387362 0.567667 4.039329 0.452534 0.923516 6.448799 0.743188 3.383467 20.668492 2.860774 1.434410 19.849669 0.371308 2.503384 1.071319 0.243141 -7.106425 1.477245 -3.985852 -2.689497 -17.914067 -1.135189 -134.895137 -39.324951 172.745155 -1.662177 -6.485140 7.183874 -5.258296 -0.114353 2.065952 12.724729 -23.579523 1.437595 106.971253 -36.205044 -153.587736 8.079915 1.909871 -32.582689 -4.288646 -43.278173 2.190440 -143.891773 86.042563 -138.459306 1.603493 -10.725352 -4.017251 0.413886 -0.713108 0.196815 -0.666108 -39.803853 3.956231 72.635137 82.920802 62.051552 -6.480286 -12.729314 9.800229 0.464821 1.489434 0.197330
-7.494610 52.230318 29.435324 173.495188 -37.867809 -2.070290 4.302759 25.110832 2.410962 0.572785 4.051883 0.453730 0.958056 6.516500 0.746535 3.423554 20.712616 2.867804 1.404451 19.888101 0.409790 2.436861 1.141674 0.323014 -7.176831 1.708700 -3.989787 -2.622548 -17.444293 -1.133226 -134.482564 -39.612582 172.498653 -1.757088 -6.673620 7.068030 -5.248664 0.033512 2.097414 12.525289 -23.448467 1.487843 107.131312 -36.302388 -153.552703 7.942088 2.032355 -32.872708 -4.257800 -43.266855 2.217302 -143.507816 86.011816 -138.092519 1.614701 -10.723780 -3.987676 0.405632 -0.717953 0.195859 -0.660347 -39.788417 3.960246 72.705140 82.920111 62.143224 -6.519870 -12.739204 9.782697 0.493204 1.502934 0.206952
-7.496454 52.229068 29.431607 173.443329 -37.908946 -2.050965 4.370237 25.170073 2.436754 0.577538 4.063891 0.454668 0.988032 6.576275 0.744207 3.458246 20.752920 2.868825 1.386794 19.919862 0.454340 2.391086 1.199780 0.410071 -7.227497 1.937642 -3.999287 -2.567518 -16.950263 -1.115376 -134.099030 -39.912879 172.261061 -1.838587 -6.837809 6.948620 -5.235294 0.178230 2.128875 12.326606 -23.299546 1.536121 107.250688 -36.390577 -153.531813 7.780029 2.131002 -33.187520 -4.217365 -43.235091 2.263887 -142.951407 85.968841 -137.593205 1.695861 -10.731965 -3.917511 0.331975 -0.710304 0.172073 -0.637386 -39.758166 3.955828 72.849144 82.901989 62.307176 -6.494313 -12.695771 9.767735 0.482343 1.454185 0.196599
